<?xml version="1.0" encoding="UTF-8"?>
<!DOCTYPE svg PUBLIC "-//W3C//DTD SVG 1.1//EN" "http://www.w3.org/Graphics/SVG/1.1/DTD/svg11.dtd">
<svg xmlns="http://www.w3.org/2000/svg" version="1.1" width="610px" height="610px" style="shape-rendering:geometricPrecision; text-rendering:geometricPrecision; image-rendering:optimizeQuality; fill-rule:evenodd; clip-rule:evenodd" xmlns:xlink="http://www.w3.org/1999/xlink">
<g><path style="opacity:1" fill="#e9e9e9" d="M 445.5,199.5 C 445.146,201.541 445.146,203.374 445.5,205C 443.353,207.237 441.02,209.237 438.5,211C 438.957,211.414 439.291,211.914 439.5,212.5C 437.726,213.187 436.059,214.02 434.5,215C 435.381,215.708 436.047,216.542 436.5,217.5C 414.5,240.167 392.167,262.5 369.5,284.5C 369.042,281.85 368.042,281.35 366.5,283C 366.957,283.414 367.291,283.914 367.5,284.5C 365.433,285.134 363.6,286.134 362,287.5C 361.535,286.069 360.701,284.903 359.5,284C 360.471,282.796 361.471,282.296 362.5,282.5C 361.009,281.756 359.509,281.09 358,280.5C 357.667,281.5 357.333,282.5 357,283.5C 355,282.167 353,280.833 351,279.5C 350.617,280.056 350.117,280.389 349.5,280.5C 285.521,217.188 221.854,153.521 158.5,89.5C 187.82,59.6804 217.32,30.0137 247,0.5C 313.368,66.7012 379.535,133.035 445.5,199.5 Z"/></g>
<g><path style="opacity:0.999" fill="#adadad" d="M 210.5,164.5 C 206.5,164.5 202.5,164.5 198.5,164.5C 200.146,162.188 202.146,160.188 204.5,158.5C 206.854,160.188 208.854,162.188 210.5,164.5 Z"/></g>
<g><path style="opacity:1" fill="#eaeaea" d="M 408.5,445.5 C 405.989,445.699 403.822,446.032 402,446.5C 401.29,445.027 400.124,444.36 398.5,444.5C 372.833,419.5 347.5,394.167 322.5,368.5C 321.948,366.669 321.948,365.003 322.5,363.5C 319.446,362.206 318.446,360.206 319.5,357.5C 320.5,355.833 321.833,354.5 323.5,353.5C 326.142,353.512 327.475,352.179 327.5,349.5C 328.5,347.833 329.833,346.5 331.5,345.5C 334.142,345.512 335.475,344.179 335.5,341.5C 336.5,339.833 337.833,338.5 339.5,337.5C 342.142,337.512 343.475,336.179 343.5,333.5C 344.5,331.833 345.833,330.5 347.5,329.5C 350.142,329.512 351.475,328.179 351.5,325.5C 352.5,323.833 353.833,322.5 355.5,321.5C 358.142,321.512 359.475,320.179 359.5,317.5C 360.5,315.833 361.833,314.5 363.5,313.5C 366.142,313.512 367.475,312.179 367.5,309.5C 368.5,307.833 369.833,306.5 371.5,305.5C 374.142,305.512 375.475,304.179 375.5,301.5C 376.5,299.833 377.833,298.5 379.5,297.5C 382.142,297.512 383.475,296.179 383.5,293.5C 384.5,291.833 385.833,290.5 387.5,289.5C 390.142,289.512 391.475,288.179 391.5,285.5C 392.5,283.833 393.833,282.5 395.5,281.5C 398.142,281.512 399.475,280.179 399.5,277.5C 400.5,275.833 401.833,274.5 403.5,273.5C 406.142,273.512 407.475,272.179 407.5,269.5C 408.5,267.833 409.833,266.5 411.5,265.5C 414.142,265.512 415.475,264.179 415.5,261.5C 416.5,259.833 417.833,258.5 419.5,257.5C 422.142,257.512 423.475,256.179 423.5,253.5C 424.5,251.833 425.833,250.5 427.5,249.5C 430.142,249.512 431.475,248.179 431.5,245.5C 432.5,243.833 433.833,242.5 435.5,241.5C 438.142,241.512 439.475,240.179 439.5,237.5C 440.5,235.833 441.833,234.5 443.5,233.5C 446.142,233.512 447.475,232.179 447.5,229.5C 448.5,227.833 449.833,226.5 451.5,225.5C 454.142,225.512 455.475,224.179 455.5,221.5C 456.5,219.833 457.833,218.5 459.5,217.5C 462.142,217.512 463.475,216.179 463.5,213.5C 464.5,211.833 465.833,210.5 467.5,209.5C 470.142,209.512 471.475,208.179 471.5,205.5C 472.5,203.833 473.833,202.5 475.5,201.5C 478.142,201.512 479.475,200.179 479.5,197.5C 480.5,195.833 481.833,194.5 483.5,193.5C 486.142,193.512 487.475,192.179 487.5,189.5C 488.5,187.833 489.833,186.5 491.5,185.5C 494.142,185.512 495.475,184.179 495.5,181.5C 496.5,179.833 497.833,178.5 499.5,177.5C 502.142,177.512 503.475,176.179 503.5,173.5C 504.5,171.833 505.833,170.5 507.5,169.5C 510.142,169.512 511.475,168.179 511.5,165.5C 513.629,161.835 516.629,159.668 520.5,159C 549.833,188.333 579.167,217.667 608.5,247C 541.66,313.007 474.993,379.174 408.5,445.5 Z"/></g>
<g><path style="opacity:1" fill="#e9e9e9" d="M 210.5,164.5 C 235.833,189.167 260.833,214.167 285.5,239.5C 285.628,243.403 286.961,247.07 289.5,250.5C 223.368,317.132 157.035,383.632 90.5,450C 89.8333,450.667 89.1667,450.667 88.5,450C 59.1667,420.667 29.8333,391.333 0.5,362C 66.3679,295.965 132.368,230.132 198.5,164.5C 202.5,164.5 206.5,164.5 210.5,164.5 Z"/></g>
<g><path style="opacity:0.997" fill="#929292" d="M 511.5,165.5 C 511.475,168.179 510.142,169.512 507.5,169.5C 508.5,167.833 509.833,166.5 511.5,165.5 Z"/></g>
<g><path style="opacity:0.997" fill="#929292" d="M 503.5,173.5 C 503.475,176.179 502.142,177.512 499.5,177.5C 500.5,175.833 501.833,174.5 503.5,173.5 Z"/></g>
<g><path style="opacity:0.997" fill="#929292" d="M 495.5,181.5 C 495.475,184.179 494.142,185.512 491.5,185.5C 492.5,183.833 493.833,182.5 495.5,181.5 Z"/></g>
<g><path style="opacity:0.997" fill="#929292" d="M 487.5,189.5 C 487.475,192.179 486.142,193.512 483.5,193.5C 484.5,191.833 485.833,190.5 487.5,189.5 Z"/></g>
<g><path style="opacity:0.997" fill="#929292" d="M 479.5,197.5 C 479.475,200.179 478.142,201.512 475.5,201.5C 476.5,199.833 477.833,198.5 479.5,197.5 Z"/></g>
<g><path style="opacity:0.997" fill="#929292" d="M 471.5,205.5 C 471.475,208.179 470.142,209.512 467.5,209.5C 468.5,207.833 469.833,206.5 471.5,205.5 Z"/></g>
<g><path style="opacity:0.999" fill="#b7b7b7" d="M 445.5,199.5 C 447.296,200.793 448.963,202.293 450.5,204C 445.965,208.703 441.298,213.203 436.5,217.5C 436.047,216.542 435.381,215.708 434.5,215C 436.059,214.02 437.726,213.187 439.5,212.5C 439.291,211.914 438.957,211.414 438.5,211C 441.02,209.237 443.353,207.237 445.5,205C 445.146,203.374 445.146,201.541 445.5,199.5 Z"/></g>
<g><path style="opacity:0.997" fill="#929292" d="M 463.5,213.5 C 463.475,216.179 462.142,217.512 459.5,217.5C 460.5,215.833 461.833,214.5 463.5,213.5 Z"/></g>
<g><path style="opacity:0.997" fill="#929292" d="M 455.5,221.5 C 455.475,224.179 454.142,225.512 451.5,225.5C 452.5,223.833 453.833,222.5 455.5,221.5 Z"/></g>
<g><path style="opacity:0.997" fill="#929292" d="M 447.5,229.5 C 447.475,232.179 446.142,233.512 443.5,233.5C 444.5,231.833 445.833,230.5 447.5,229.5 Z"/></g>
<g><path style="opacity:0.997" fill="#929292" d="M 439.5,237.5 C 439.475,240.179 438.142,241.512 435.5,241.5C 436.5,239.833 437.833,238.5 439.5,237.5 Z"/></g>
<g><path style="opacity:0.999" fill="#a1a1a1" d="M 285.5,239.5 C 289.165,241.629 291.332,244.629 292,248.5C 291.292,249.381 290.458,250.047 289.5,250.5C 286.961,247.07 285.628,243.403 285.5,239.5 Z"/></g>
<g><path style="opacity:0.997" fill="#929292" d="M 431.5,245.5 C 431.475,248.179 430.142,249.512 427.5,249.5C 428.5,247.833 429.833,246.5 431.5,245.5 Z"/></g>
<g><path style="opacity:0.997" fill="#929292" d="M 423.5,253.5 C 423.475,256.179 422.142,257.512 419.5,257.5C 420.5,255.833 421.833,254.5 423.5,253.5 Z"/></g>
<g><path style="opacity:0.997" fill="#929292" d="M 415.5,261.5 C 415.475,264.179 414.142,265.512 411.5,265.5C 412.5,263.833 413.833,262.5 415.5,261.5 Z"/></g>
<g><path style="opacity:0.997" fill="#929292" d="M 407.5,269.5 C 407.475,272.179 406.142,273.512 403.5,273.5C 404.5,271.833 405.833,270.5 407.5,269.5 Z"/></g>
<g><path style="opacity:0.997" fill="#929292" d="M 399.5,277.5 C 399.475,280.179 398.142,281.512 395.5,281.5C 396.5,279.833 397.833,278.5 399.5,277.5 Z"/></g>
<g><path style="opacity:0.999" fill="#c3c3c3" d="M 369.5,284.5 C 367.188,287.479 364.521,290.146 361.5,292.5C 357.146,288.812 353.146,284.812 349.5,280.5C 350.117,280.389 350.617,280.056 351,279.5C 353,280.833 355,282.167 357,283.5C 357.333,282.5 357.667,281.5 358,280.5C 359.509,281.09 361.009,281.756 362.5,282.5C 361.471,282.296 360.471,282.796 359.5,284C 360.701,284.903 361.535,286.069 362,287.5C 363.6,286.134 365.433,285.134 367.5,284.5C 367.291,283.914 366.957,283.414 366.5,283C 368.042,281.35 369.042,281.85 369.5,284.5 Z"/></g>
<g><path style="opacity:0.997" fill="#929292" d="M 391.5,285.5 C 391.475,288.179 390.142,289.512 387.5,289.5C 388.5,287.833 389.833,286.5 391.5,285.5 Z"/></g>
<g><path style="opacity:0.997" fill="#929292" d="M 383.5,293.5 C 383.475,296.179 382.142,297.512 379.5,297.5C 380.5,295.833 381.833,294.5 383.5,293.5 Z"/></g>
<g><path style="opacity:0.997" fill="#929292" d="M 375.5,301.5 C 375.475,304.179 374.142,305.512 371.5,305.5C 372.5,303.833 373.833,302.5 375.5,301.5 Z"/></g>
<g><path style="opacity:0.997" fill="#929292" d="M 367.5,309.5 C 367.475,312.179 366.142,313.512 363.5,313.5C 364.5,311.833 365.833,310.5 367.5,309.5 Z"/></g>
<g><path style="opacity:0.997" fill="#9b9b9b" d="M 251.5,320.5 C 249.61,320.89 248.11,319.89 247,317.5C 245.588,319.452 243.755,320.785 241.5,321.5C 243.127,319.37 244.96,317.37 247,315.5C 248.707,317.037 250.207,318.704 251.5,320.5 Z"/></g>
<g><path style="opacity:0.997" fill="#929292" d="M 359.5,317.5 C 359.475,320.179 358.142,321.512 355.5,321.5C 356.5,319.833 357.833,318.5 359.5,317.5 Z"/></g>
<g><path style="opacity:1" fill="#e9e9e9" d="M 251.5,320.5 C 317.965,386.465 384.299,452.632 450.5,519C 421.632,548.035 392.632,576.868 363.5,605.5C 361.965,604.646 360.632,604.646 359.5,605.5C 292.188,538.854 225.188,471.854 158.5,404.5C 185.854,376.479 213.521,348.812 241.5,321.5C 243.755,320.785 245.588,319.452 247,317.5C 248.11,319.89 249.61,320.89 251.5,320.5 Z"/></g>
<g><path style="opacity:0.997" fill="#929292" d="M 351.5,325.5 C 351.475,328.179 350.142,329.512 347.5,329.5C 348.5,327.833 349.833,326.5 351.5,325.5 Z"/></g>
<g><path style="opacity:0.997" fill="#929292" d="M 343.5,333.5 C 343.475,336.179 342.142,337.512 339.5,337.5C 340.5,335.833 341.833,334.5 343.5,333.5 Z"/></g>
<g><path style="opacity:0.997" fill="#929292" d="M 335.5,341.5 C 335.475,344.179 334.142,345.512 331.5,345.5C 332.5,343.833 333.833,342.5 335.5,341.5 Z"/></g>
<g><path style="opacity:0.997" fill="#929292" d="M 327.5,349.5 C 327.475,352.179 326.142,353.512 323.5,353.5C 324.5,351.833 325.833,350.5 327.5,349.5 Z"/></g>
<g><path style="opacity:0.999" fill="#acacac" d="M 319.5,357.5 C 318.446,360.206 319.446,362.206 322.5,363.5C 321.948,365.003 321.948,366.669 322.5,368.5C 319.854,366.521 317.521,364.188 315.5,361.5C 316.521,359.812 317.855,358.479 319.5,357.5 Z"/></g>
<g><path style="opacity:0.999" fill="#9d9d9d" d="M 398.5,444.5 C 400.124,444.36 401.29,445.027 402,446.5C 403.822,446.032 405.989,445.699 408.5,445.5C 407.207,447.296 405.707,448.963 404,450.5C 401.96,448.63 400.127,446.63 398.5,444.5 Z"/></g>
<g><path style="opacity:0.996" fill="#848484" d="M 363.5,605.5 C 362.525,609.265 361.192,609.265 359.5,605.5C 360.632,604.646 361.965,604.646 363.5,605.5 Z"/></g>
</svg>
